# xmcd
#
# Track frame offsets:
#       150
#       11658
#       24674
#       42875
#       55460
#       72824
#       87081
#       102112
#       119210
#       133486
#
# Disc length: 2011 seconds
#
# Revision: 0
# Processed by: cddbd v1.4PL0 Copyright (c) Steve Scherf et al.
# Submitted via: WhereIsIt 3.51
#
DISCID=8d07d90a
DTITLE=Carl Wayne - It Won't Stop Loving ou
DYEAR=1999
DGENRE=Country
TTITLE0=It Ain't Her Leaving
TTITLE1=Nobody's Mad At Me Here
TTITLE2=Love Never Hurt Nobody
TTITLE3=I May Be Lost
TTITLE4=Always A Woman
TTITLE5=One More Good Love
TTITLE6=It Won't Stop Loving You
TTITLE7=Oh No
TTITLE8=Uncle Hickory's General Store
TTITLE9=Welcome Home
EXTD=
EXTT0=
EXTT1=
EXTT2=
EXTT3=
EXTT4=
EXTT5=
EXTT6=
EXTT7=
EXTT8=
EXTT9=
PLAYORDER=
